<mxfile host="app.diagrams.net" agent="Mozilla/5.0 (Windows NT 10.0; Win64; x64) AppleWebKit/537.36 (KHTML, like Gecko) Chrome/131.0.0.0 Safari/537.36" version="24.8.6">
  <diagram name="Page-1" id="5f0bae14-7c28-e335-631c-24af17079c00">
    <mxGraphModel dx="600" dy="323" grid="1" gridSize="5" guides="1" tooltips="1" connect="1" arrows="1" fold="1" page="1" pageScale="1" pageWidth="1654" pageHeight="1169" background="none" math="0" shadow="0">
      <root>
        <mxCell id="0" />
        <mxCell id="1" parent="0" />
        <mxCell id="dJAv7hlkOXRz0tdyAFG--1" value="TriggersAndMenu" style="swimlane;fontSize=11;startSize=20;" parent="1" vertex="1">
          <mxGeometry x="130" y="55" width="400" height="380" as="geometry">
            <mxRectangle x="260" y="40" width="110" height="20" as="alternateBounds" />
          </mxGeometry>
        </mxCell>
        <mxCell id="70euA2CozID4F5zwJfQz-9" value="OnEdit" style="swimlane;fontStyle=1;childLayout=stackLayout;horizontal=1;startSize=20;horizontalStack=0;resizeParent=1;resizeParentMax=0;resizeLast=0;collapsible=1;marginBottom=0;whiteSpace=wrap;html=1;fontSize=10;align=center;" vertex="1" parent="dJAv7hlkOXRz0tdyAFG--1">
          <mxGeometry x="45" y="60" width="140" height="110" as="geometry">
            <mxRectangle x="45" y="60" width="70" height="30" as="alternateBounds" />
          </mxGeometry>
        </mxCell>
        <mxCell id="70euA2CozID4F5zwJfQz-10" value="&lt;div style=&quot;color: rgb(60, 64, 67); background-color: rgb(248, 249, 250); font-family: &amp;quot;Roboto Mono&amp;quot;, Consolas, &amp;quot;Courier New&amp;quot;, monospace; font-size: 10px; line-height: 18px; white-space: pre;&quot;&gt;&lt;span style=&quot;color: rgb(32, 33, 36); font-size: 10px;&quot;&gt;billDate&lt;/span&gt;&lt;/div&gt;" style="text;strokeColor=none;fillColor=none;align=left;verticalAlign=middle;spacingLeft=4;spacingRight=4;overflow=hidden;points=[[0,0.5],[1,0.5]];portConstraint=eastwest;rotatable=0;whiteSpace=wrap;html=1;fontSize=10;" vertex="1" parent="70euA2CozID4F5zwJfQz-9">
          <mxGeometry y="20" width="140" height="30" as="geometry" />
        </mxCell>
        <mxCell id="70euA2CozID4F5zwJfQz-11" value="Item 2" style="text;strokeColor=none;fillColor=none;align=left;verticalAlign=middle;spacingLeft=4;spacingRight=4;overflow=hidden;points=[[0,0.5],[1,0.5]];portConstraint=eastwest;rotatable=0;whiteSpace=wrap;html=1;" vertex="1" parent="70euA2CozID4F5zwJfQz-9">
          <mxGeometry y="50" width="140" height="30" as="geometry" />
        </mxCell>
        <mxCell id="70euA2CozID4F5zwJfQz-12" value="Item 3" style="text;strokeColor=none;fillColor=none;align=left;verticalAlign=middle;spacingLeft=4;spacingRight=4;overflow=hidden;points=[[0,0.5],[1,0.5]];portConstraint=eastwest;rotatable=0;whiteSpace=wrap;html=1;" vertex="1" parent="70euA2CozID4F5zwJfQz-9">
          <mxGeometry y="80" width="140" height="30" as="geometry" />
        </mxCell>
        <mxCell id="70euA2CozID4F5zwJfQz-33" value="&lt;div style=&quot;color: rgb(60, 64, 67); background-color: rgb(248, 249, 250); font-family: &amp;quot;Roboto Mono&amp;quot;, Consolas, &amp;quot;Courier New&amp;quot;, monospace; font-size: 13px; line-height: 18px; white-space: pre;&quot;&gt;&lt;span style=&quot;color: #202124;&quot;&gt;onOnceAnHour&lt;/span&gt;&lt;/div&gt;" style="swimlane;fontStyle=1;childLayout=stackLayout;horizontal=1;startSize=20;horizontalStack=0;resizeParent=1;resizeParentMax=0;resizeLast=0;collapsible=1;marginBottom=0;whiteSpace=wrap;html=1;fontSize=11;align=center;" vertex="1" parent="dJAv7hlkOXRz0tdyAFG--1">
          <mxGeometry x="45" y="185" width="140" height="110" as="geometry">
            <mxRectangle x="45" y="60" width="70" height="30" as="alternateBounds" />
          </mxGeometry>
        </mxCell>
        <mxCell id="70euA2CozID4F5zwJfQz-34" value="&lt;div style=&quot;color: rgb(60, 64, 67); background-color: rgb(248, 249, 250); font-family: &amp;quot;Roboto Mono&amp;quot;, Consolas, &amp;quot;Courier New&amp;quot;, monospace; font-size: 10px; line-height: 18px; white-space: pre;&quot;&gt;&lt;span style=&quot;color: rgb(32, 33, 36); font-size: 10px;&quot;&gt;billDate&lt;/span&gt;&lt;/div&gt;" style="text;strokeColor=none;fillColor=none;align=left;verticalAlign=middle;spacingLeft=4;spacingRight=4;overflow=hidden;points=[[0,0.5],[1,0.5]];portConstraint=eastwest;rotatable=0;whiteSpace=wrap;html=1;fontSize=10;" vertex="1" parent="70euA2CozID4F5zwJfQz-33">
          <mxGeometry y="20" width="140" height="30" as="geometry" />
        </mxCell>
        <mxCell id="70euA2CozID4F5zwJfQz-35" value="Item 2" style="text;strokeColor=none;fillColor=none;align=left;verticalAlign=middle;spacingLeft=4;spacingRight=4;overflow=hidden;points=[[0,0.5],[1,0.5]];portConstraint=eastwest;rotatable=0;whiteSpace=wrap;html=1;" vertex="1" parent="70euA2CozID4F5zwJfQz-33">
          <mxGeometry y="50" width="140" height="30" as="geometry" />
        </mxCell>
        <mxCell id="70euA2CozID4F5zwJfQz-36" value="Item 3" style="text;strokeColor=none;fillColor=none;align=left;verticalAlign=middle;spacingLeft=4;spacingRight=4;overflow=hidden;points=[[0,0.5],[1,0.5]];portConstraint=eastwest;rotatable=0;whiteSpace=wrap;html=1;" vertex="1" parent="70euA2CozID4F5zwJfQz-33">
          <mxGeometry y="80" width="140" height="30" as="geometry" />
        </mxCell>
        <mxCell id="dJAv7hlkOXRz0tdyAFG--2" value="billUtils" style="swimlane;startSize=20;fontSize=10;" parent="1" vertex="1">
          <mxGeometry x="745" y="510" width="315" height="200" as="geometry">
            <mxRectangle x="745" y="510" width="70" height="30" as="alternateBounds" />
          </mxGeometry>
        </mxCell>
        <mxCell id="70euA2CozID4F5zwJfQz-14" value="&lt;div style=&quot;color: rgb(60, 64, 67); background-color: rgb(248, 249, 250); font-family: &amp;quot;Roboto Mono&amp;quot;, Consolas, &amp;quot;Courier New&amp;quot;, monospace; font-size: 9px; line-height: 18px; white-space: pre;&quot;&gt;&lt;span style=&quot;color: rgb(95, 99, 104); font-size: 9px;&quot;&gt;billAllInfo&lt;/span&gt;&lt;/div&gt;" style="swimlane;fontStyle=0;childLayout=stackLayout;horizontal=1;startSize=20;horizontalStack=0;resizeParent=1;resizeParentMax=0;resizeLast=0;collapsible=1;marginBottom=0;whiteSpace=wrap;html=1;fontSize=9;" vertex="1" parent="dJAv7hlkOXRz0tdyAFG--2">
          <mxGeometry x="25" y="35" width="95" height="50" as="geometry" />
        </mxCell>
        <mxCell id="70euA2CozID4F5zwJfQz-15" value="&lt;div style=&quot;color: rgb(60, 64, 67); background-color: rgb(248, 249, 250); font-family: &amp;quot;Roboto Mono&amp;quot;, Consolas, &amp;quot;Courier New&amp;quot;, monospace; font-size: 9px; line-height: 18px; white-space: pre;&quot;&gt;&lt;span style=&quot;color: rgb(32, 33, 36); font-size: 9px;&quot;&gt;billInfo&lt;/span&gt;&lt;/div&gt;" style="text;strokeColor=none;fillColor=none;align=left;verticalAlign=middle;spacingLeft=4;spacingRight=4;overflow=hidden;points=[[0,0.5],[1,0.5]];portConstraint=eastwest;rotatable=0;whiteSpace=wrap;html=1;fontSize=9;" vertex="1" parent="70euA2CozID4F5zwJfQz-14">
          <mxGeometry y="20" width="95" height="30" as="geometry" />
        </mxCell>
        <mxCell id="70euA2CozID4F5zwJfQz-18" value="&lt;div style=&quot;color: rgb(60, 64, 67); background-color: rgb(248, 249, 250); font-family: &amp;quot;Roboto Mono&amp;quot;, Consolas, &amp;quot;Courier New&amp;quot;, monospace; font-weight: 400; font-size: 9px; line-height: 18px; white-space: pre;&quot;&gt;&lt;span style=&quot;color: rgb(32, 33, 36); font-size: 9px;&quot;&gt;billDate&lt;/span&gt;&lt;/div&gt;" style="swimlane;whiteSpace=wrap;html=1;fontSize=9;startSize=20;" vertex="1" collapsed="1" parent="dJAv7hlkOXRz0tdyAFG--2">
          <mxGeometry x="175" y="35" width="80" height="35" as="geometry">
            <mxRectangle x="175" y="35" width="125" height="50" as="alternateBounds" />
          </mxGeometry>
        </mxCell>
        <mxCell id="70euA2CozID4F5zwJfQz-23" value="&lt;div style=&quot;color: rgb(60, 64, 67); background-color: rgb(248, 249, 250); font-family: &amp;quot;Roboto Mono&amp;quot;, Consolas, &amp;quot;Courier New&amp;quot;, monospace; font-size: 9px; line-height: 18px; white-space: pre;&quot;&gt;&lt;span style=&quot;color: rgb(95, 99, 104); font-size: 9px;&quot;&gt;billInfo&lt;/span&gt;&lt;/div&gt;" style="swimlane;fontStyle=0;childLayout=stackLayout;horizontal=1;startSize=20;horizontalStack=0;resizeParent=1;resizeParentMax=0;resizeLast=0;collapsible=1;marginBottom=0;whiteSpace=wrap;html=1;fontSize=9;" vertex="1" parent="dJAv7hlkOXRz0tdyAFG--2">
          <mxGeometry x="25" y="105" width="95" height="80" as="geometry">
            <mxRectangle x="25" y="105" width="80" height="35" as="alternateBounds" />
          </mxGeometry>
        </mxCell>
        <mxCell id="70euA2CozID4F5zwJfQz-24" value="&lt;div style=&quot;color: rgb(60, 64, 67); background-color: rgb(248, 249, 250); font-family: &amp;quot;Roboto Mono&amp;quot;, Consolas, &amp;quot;Courier New&amp;quot;, monospace; font-size: 9px; line-height: 18px; white-space: pre;&quot;&gt;&lt;span style=&quot;color: rgb(32, 33, 36); text-align: center;&quot;&gt;billDate&lt;/span&gt;&lt;/div&gt;" style="text;strokeColor=none;fillColor=none;align=left;verticalAlign=middle;spacingLeft=4;spacingRight=4;overflow=hidden;points=[[0,0.5],[1,0.5]];portConstraint=eastwest;rotatable=0;whiteSpace=wrap;html=1;fontSize=9;" vertex="1" parent="70euA2CozID4F5zwJfQz-23">
          <mxGeometry y="20" width="95" height="30" as="geometry" />
        </mxCell>
        <mxCell id="70euA2CozID4F5zwJfQz-28" value="&lt;div style=&quot;color: rgb(60, 64, 67); background-color: rgb(248, 249, 250); font-family: &amp;quot;Roboto Mono&amp;quot;, Consolas, &amp;quot;Courier New&amp;quot;, monospace; font-size: 9px; line-height: 18px; white-space: pre;&quot;&gt;&lt;span style=&quot;color: rgb(32, 33, 36); text-align: center;&quot;&gt;billFilterName&lt;/span&gt;&lt;/div&gt;" style="text;strokeColor=none;fillColor=none;align=left;verticalAlign=middle;spacingLeft=4;spacingRight=4;overflow=hidden;points=[[0,0.5],[1,0.5]];portConstraint=eastwest;rotatable=0;whiteSpace=wrap;html=1;fontSize=9;" vertex="1" parent="70euA2CozID4F5zwJfQz-23">
          <mxGeometry y="50" width="95" height="30" as="geometry" />
        </mxCell>
        <mxCell id="70euA2CozID4F5zwJfQz-27" value="&lt;div style=&quot;color: rgb(60, 64, 67); background-color: rgb(248, 249, 250); font-family: &amp;quot;Roboto Mono&amp;quot;, Consolas, &amp;quot;Courier New&amp;quot;, monospace; font-weight: 400; font-size: 9px; line-height: 18px; white-space: pre;&quot;&gt;&lt;span style=&quot;color: rgb(32, 33, 36);&quot;&gt;billFilterName&lt;/span&gt;&lt;/div&gt;" style="swimlane;whiteSpace=wrap;html=1;fontSize=9;startSize=20;" vertex="1" parent="dJAv7hlkOXRz0tdyAFG--2">
          <mxGeometry x="175" y="105" width="125" height="50" as="geometry">
            <mxRectangle x="175" y="105" width="80" height="35" as="alternateBounds" />
          </mxGeometry>
        </mxCell>
        <mxCell id="70euA2CozID4F5zwJfQz-30" value="" style="endArrow=classic;html=1;rounded=0;" edge="1" parent="dJAv7hlkOXRz0tdyAFG--2" source="70euA2CozID4F5zwJfQz-24" target="70euA2CozID4F5zwJfQz-18">
          <mxGeometry width="50" height="50" relative="1" as="geometry">
            <mxPoint x="205" y="190" as="sourcePoint" />
            <mxPoint x="255" y="140" as="targetPoint" />
          </mxGeometry>
        </mxCell>
        <mxCell id="70euA2CozID4F5zwJfQz-31" value="" style="endArrow=classic;html=1;rounded=0;" edge="1" parent="dJAv7hlkOXRz0tdyAFG--2" source="70euA2CozID4F5zwJfQz-28" target="70euA2CozID4F5zwJfQz-27">
          <mxGeometry width="50" height="50" relative="1" as="geometry">
            <mxPoint x="205" y="190" as="sourcePoint" />
            <mxPoint x="255" y="140" as="targetPoint" />
          </mxGeometry>
        </mxCell>
        <mxCell id="70euA2CozID4F5zwJfQz-32" value="" style="endArrow=classic;html=1;rounded=0;" edge="1" parent="dJAv7hlkOXRz0tdyAFG--2" source="70euA2CozID4F5zwJfQz-15" target="70euA2CozID4F5zwJfQz-23">
          <mxGeometry width="50" height="50" relative="1" as="geometry">
            <mxPoint x="205" y="190" as="sourcePoint" />
            <mxPoint x="255" y="140" as="targetPoint" />
          </mxGeometry>
        </mxCell>
        <mxCell id="70euA2CozID4F5zwJfQz-1" value="ScanTools" style="swimlane;fontSize=10;startSize=20;" vertex="1" parent="1">
          <mxGeometry x="570" y="40" width="400" height="380" as="geometry">
            <mxRectangle x="260" y="40" width="110" height="20" as="alternateBounds" />
          </mxGeometry>
        </mxCell>
        <mxCell id="70euA2CozID4F5zwJfQz-2" value="GMailTools" style="swimlane;fontSize=11;startSize=20;" vertex="1" parent="1">
          <mxGeometry x="140" y="430" width="400" height="380" as="geometry">
            <mxRectangle x="260" y="40" width="110" height="20" as="alternateBounds" />
          </mxGeometry>
        </mxCell>
        <mxCell id="70euA2CozID4F5zwJfQz-3" value="&lt;h1 style=&quot;margin-top: 0px;&quot;&gt;Heading&lt;/h1&gt;&lt;p&gt;Lorem ipsum dolor sit amet, consectetur adipisicing elit, sed do eiusmod tempor incididunt ut labore et dolore magna aliqua.&lt;/p&gt;" style="text;html=1;whiteSpace=wrap;overflow=hidden;rounded=0;" vertex="1" parent="1">
          <mxGeometry x="90" y="845" width="180" height="120" as="geometry" />
        </mxCell>
        <mxCell id="70euA2CozID4F5zwJfQz-4" value="Text" style="text;html=1;align=center;verticalAlign=middle;whiteSpace=wrap;rounded=0;" vertex="1" parent="1">
          <mxGeometry x="10" y="180" width="110" height="70" as="geometry" />
        </mxCell>
        <mxCell id="70euA2CozID4F5zwJfQz-5" value="List" style="swimlane;fontStyle=0;childLayout=stackLayout;horizontal=1;startSize=30;horizontalStack=0;resizeParent=1;resizeParentMax=0;resizeLast=0;collapsible=1;marginBottom=0;whiteSpace=wrap;html=1;" vertex="1" parent="1">
          <mxGeometry x="1210" y="225" width="140" height="120" as="geometry">
            <mxRectangle x="30" y="500" width="60" height="30" as="alternateBounds" />
          </mxGeometry>
        </mxCell>
        <mxCell id="70euA2CozID4F5zwJfQz-6" value="Item 1" style="text;strokeColor=none;fillColor=none;align=left;verticalAlign=middle;spacingLeft=4;spacingRight=4;overflow=hidden;points=[[0,0.5],[1,0.5]];portConstraint=eastwest;rotatable=0;whiteSpace=wrap;html=1;" vertex="1" parent="70euA2CozID4F5zwJfQz-5">
          <mxGeometry y="30" width="140" height="30" as="geometry" />
        </mxCell>
        <mxCell id="70euA2CozID4F5zwJfQz-7" value="Item 2" style="text;strokeColor=none;fillColor=none;align=left;verticalAlign=middle;spacingLeft=4;spacingRight=4;overflow=hidden;points=[[0,0.5],[1,0.5]];portConstraint=eastwest;rotatable=0;whiteSpace=wrap;html=1;" vertex="1" parent="70euA2CozID4F5zwJfQz-5">
          <mxGeometry y="60" width="140" height="30" as="geometry" />
        </mxCell>
        <mxCell id="70euA2CozID4F5zwJfQz-8" value="Item 3" style="text;strokeColor=none;fillColor=none;align=left;verticalAlign=middle;spacingLeft=4;spacingRight=4;overflow=hidden;points=[[0,0.5],[1,0.5]];portConstraint=eastwest;rotatable=0;whiteSpace=wrap;html=1;" vertex="1" parent="70euA2CozID4F5zwJfQz-5">
          <mxGeometry y="90" width="140" height="30" as="geometry" />
        </mxCell>
      </root>
    </mxGraphModel>
  </diagram>
</mxfile>
